<svg width="108" height="108" viewBox="0 0 108 108" fill="none" xmlns="http://www.w3.org/2000/svg">
<path d="M107.556 0V107.556H70.0058L70.0718 69.1212H83.3465C84.5403 69.1212 85.5456 68.228 85.6861 67.0424L87.1545 54.6534C87.3208 53.2521 86.226 52.02 84.8149 52.02H70.0058V41.6564C70.0058 36.9565 71.3108 33.7539 78.0504 33.7539L84.2911 33.751C85.5916 33.7502 86.6459 32.6957 86.6459 31.3949V20.9484C86.6459 19.6471 85.5908 18.5923 84.2898 18.5923H74.1206C61.7278 18.5923 53.2433 26.1567 53.2433 40.0488V52.0197H43.2761C41.9714 52.0197 40.915 53.08 40.92 54.3848L40.9679 66.7738C40.9729 68.0714 42.0261 69.1207 43.3238 69.1207H53.3091L53.243 107.555L0 107.556V35C0 15.67 15.6701 2.3426e-06 35 1.84979e-06L107.556 0Z" fill="#3B79BB"/>
</svg>
