<svg width="246" height="122" viewBox="0 0 246 122" fill="none" xmlns="http://www.w3.org/2000/svg">
<path d="M125.184 120.855C125.184 90.4798 149.808 65.8555 180.184 65.8555L180.184 120.855L125.184 120.855Z" fill="#FF470B"/>
<path d="M245.184 120.855C245.184 90.4798 220.559 65.8555 190.184 65.8555L190.184 120.855L245.184 120.855Z" fill="#FDBE35"/>
<rect x="159.184" y="56" width="50" height="50" rx="24.2798" transform="rotate(-90 159.184 56)" fill="#3B79BB"/>
<path d="M54.3262 55.3711L54.3262 54.3264C54.3262 24.3235 30.0041 0.00142945 0.00121549 0.00142814L0.00121307 55.3711L54.3262 55.3711Z" fill="#FDBE35"/>
<path d="M0 65.8164L-1.36996e-07 66.8611C-4.07139e-06 96.864 24.3221 121.186 54.325 121.186L54.325 65.8164L0 65.8164Z" fill="#FDBE35"/>
<path d="M119.098 65.8164L119.098 66.8611C119.098 96.864 94.7755 121.186 64.7727 121.186L64.7727 65.8164L119.098 65.8164Z" fill="#FF470B"/>
<rect width="20.8942" height="20.8942" rx="10.4471" transform="matrix(4.37114e-08 1 1 -4.37114e-08 48.0566 0)" fill="#3B79BB"/>
<path d="M119.098 0L119.098 1.0447C119.098 31.0475 94.7755 55.3697 64.7727 55.3697L64.7727 54.325C64.7727 24.3221 89.0948 -1.31147e-06 119.098 0Z" fill="#1E832A"/>
</svg>
