<svg width="160" height="112" viewBox="0 0 160 112" fill="none" xmlns="http://www.w3.org/2000/svg">
<path d="M3.89435 104.429V105.439H1.41358V110.201H0.164917V104.429H3.89435Z" fill="black"/>
<path d="M8.75293 104.429C9.5137 104.429 10.0677 104.59 10.4151 104.914C10.7679 105.232 10.9443 105.671 10.9443 106.232C10.9443 106.485 10.9057 106.727 10.8285 106.959C10.7513 107.185 10.6218 107.39 10.4399 107.573C10.2634 107.751 10.0292 107.891 9.73697 107.994C9.44479 108.096 9.0837 108.147 8.6537 108.147H8.1162V110.201H6.86754V104.429H8.75293ZM8.68678 105.431H8.1162V107.145H8.52966C8.76671 107.145 8.97069 107.115 9.14159 107.056C9.31248 106.997 9.44479 106.902 9.53851 106.773C9.63223 106.644 9.67909 106.477 9.67909 106.272C9.67909 105.986 9.59915 105.776 9.43928 105.641C9.27941 105.501 9.02857 105.431 8.68678 105.431Z" fill="black"/>
<path d="M19.4858 107.307C19.4858 107.754 19.428 108.161 19.3122 108.527C19.2019 108.888 19.031 109.201 18.7995 109.465C18.5735 109.729 18.2813 109.931 17.923 110.071C17.5701 110.212 17.1539 110.282 16.6743 110.282C16.1947 110.282 15.7757 110.212 15.4174 110.071C15.0646 109.926 14.7724 109.724 14.5408 109.465C14.3148 109.201 14.1439 108.886 14.0281 108.519C13.9179 108.153 13.8628 107.746 13.8628 107.299C13.8628 106.7 13.962 106.18 14.1604 105.738C14.3644 105.296 14.6731 104.954 15.0866 104.712C15.5056 104.464 16.0376 104.34 16.6826 104.34C17.3221 104.34 17.8485 104.464 18.262 104.712C18.6755 104.954 18.9814 105.299 19.1799 105.746C19.3839 106.188 19.4858 106.708 19.4858 107.307ZM15.1776 107.307C15.1776 107.711 15.2299 108.058 15.3347 108.35C15.4394 108.641 15.6021 108.864 15.8226 109.02C16.0431 109.177 16.327 109.255 16.6743 109.255C17.0326 109.255 17.3193 109.177 17.5343 109.02C17.7548 108.864 17.9147 108.641 18.0139 108.35C18.1187 108.058 18.171 107.711 18.171 107.307C18.171 106.698 18.0553 106.221 17.8237 105.876C17.5922 105.531 17.2118 105.358 16.6826 105.358C16.3297 105.358 16.0431 105.437 15.8226 105.593C15.6021 105.749 15.4394 105.973 15.3347 106.264C15.2299 106.555 15.1776 106.902 15.1776 107.307Z" fill="black"/>
<path d="M25.2735 110.201L23.8512 105.674H23.8181C23.8236 105.781 23.8319 105.943 23.8429 106.159C23.8539 106.374 23.865 106.606 23.876 106.854C23.887 107.096 23.8925 107.317 23.8925 107.517V110.201H22.7762V104.429H24.4796L25.8771 108.843H25.902L27.3822 104.429H29.0856V110.201H27.9197V107.468C27.9197 107.285 27.9224 107.075 27.9279 106.838C27.9389 106.601 27.9472 106.377 27.9527 106.167C27.9638 105.951 27.972 105.79 27.9775 105.682H27.9445L26.4229 110.201H25.2735Z" fill="black"/>
<path d="M36.258 110.201L35.828 108.826H33.678L33.248 110.201H31.9001L33.984 104.405H35.5138L37.6059 110.201H36.258ZM35.1003 106.458C35.0728 106.366 35.0369 106.25 34.9928 106.11C34.9487 105.97 34.9046 105.827 34.8605 105.682C34.8164 105.536 34.7806 105.41 34.753 105.302C34.7255 105.41 34.6869 105.544 34.6373 105.706C34.5932 105.862 34.5491 106.013 34.505 106.159C34.4664 106.299 34.436 106.399 34.414 106.458L33.9923 107.8H35.5303L35.1003 106.458Z" fill="black"/>
<path d="M45.0435 104.429V109.182H45.8291V111.882H44.6218V110.201H40.9255V111.882H39.7181V109.182H40.173C40.3273 108.88 40.4762 108.562 40.6195 108.228C40.7628 107.894 40.8951 107.536 41.0164 107.153C41.1432 106.77 41.2562 106.355 41.3555 105.908C41.4547 105.455 41.5374 104.962 41.6035 104.429H45.0435ZM42.5958 105.447C42.5573 105.728 42.5021 106.027 42.4305 106.345C42.3588 106.657 42.2733 106.978 42.1741 107.307C42.0804 107.635 41.9757 107.959 41.8599 108.277C41.7441 108.595 41.6201 108.897 41.4878 109.182H43.7949V105.447H42.5958Z" fill="black"/>
<path d="M51.3089 105.367C51.0719 105.367 50.8596 105.412 50.6722 105.504C50.4903 105.596 50.3359 105.728 50.2091 105.9C50.0823 106.067 49.9859 106.272 49.9197 106.514C49.8591 106.757 49.8287 107.029 49.8287 107.331C49.8287 107.741 49.8784 108.091 49.9776 108.382C50.0823 108.667 50.245 108.886 50.4655 109.037C50.686 109.188 50.9671 109.263 51.3089 109.263C51.5515 109.263 51.7913 109.236 52.0284 109.182C52.2709 109.128 52.5328 109.053 52.8139 108.956V109.982C52.5548 110.085 52.2985 110.16 52.0449 110.209C51.7913 110.257 51.5074 110.282 51.1932 110.282C50.5868 110.282 50.0851 110.16 49.6882 109.918C49.2967 109.67 49.0073 109.325 48.8199 108.883C48.6325 108.436 48.5387 107.916 48.5387 107.323C48.5387 106.886 48.5994 106.488 48.7206 106.126C48.8419 105.76 49.0183 105.445 49.2499 105.181C49.4869 104.917 49.7764 104.712 50.1182 104.566C50.4655 104.421 50.8624 104.348 51.3089 104.348C51.6011 104.348 51.8933 104.386 52.1855 104.461C52.4832 104.531 52.7671 104.628 53.0372 104.752L52.632 105.746C52.4115 105.644 52.1882 105.555 51.9622 105.48C51.7417 105.404 51.5239 105.367 51.3089 105.367Z" fill="black"/>
<path d="M56.1359 110.201V104.429H57.3845V106.644H57.8807C58.4375 106.644 58.8923 106.719 59.2451 106.87C59.6034 107.021 59.868 107.229 60.0389 107.493C60.2098 107.757 60.2953 108.058 60.2953 108.398C60.2953 108.775 60.2098 109.099 60.0389 109.368C59.868 109.638 59.6034 109.845 59.2451 109.991C58.8868 110.131 58.4237 110.201 57.8559 110.201H56.1359ZM57.8062 109.198C58.1866 109.198 58.4843 109.139 58.6993 109.02C58.9198 108.902 59.0301 108.694 59.0301 108.398C59.0301 108.193 58.975 108.037 58.8647 107.929C58.76 107.821 58.6084 107.749 58.4099 107.711C58.217 107.668 57.9827 107.646 57.707 107.646H57.3845V109.198H57.8062Z" fill="black"/>
<path d="M68.2891 110.201H66.8668L64.7251 107.274V110.201H63.4764V104.429H64.7251V107.226L66.842 104.429H68.1734L66.0234 107.202L68.2891 110.201Z" fill="black"/>
<path d="M74.7133 110.201L74.2833 108.826H72.1333L71.7033 110.201H70.3554L72.4393 104.405H73.9691L76.0612 110.201H74.7133ZM73.5556 106.458C73.5281 106.366 73.4922 106.25 73.4481 106.11C73.404 105.97 73.3599 105.827 73.3158 105.682C73.2717 105.536 73.2359 105.41 73.2083 105.302C73.1808 105.41 73.1422 105.544 73.0926 105.706C73.0484 105.862 73.0043 106.013 72.9602 106.159C72.9217 106.299 72.8913 106.399 72.8693 106.458L72.4475 107.8H73.9856L73.5556 106.458Z" fill="black"/>
<path d="M88.7813 107.307C88.7813 107.754 88.7234 108.161 88.6076 108.527C88.4974 108.888 88.3265 109.201 88.0949 109.465C87.8689 109.729 87.5767 109.931 87.2184 110.071C86.8656 110.212 86.4493 110.282 85.9697 110.282C85.4901 110.282 85.0711 110.212 84.7128 110.071C84.36 109.926 84.0678 109.724 83.8363 109.465C83.6102 109.201 83.4393 108.886 83.3236 108.519C83.2133 108.153 83.1582 107.746 83.1582 107.299C83.1582 106.7 83.2574 106.18 83.4559 105.738C83.6598 105.296 83.9686 104.954 84.382 104.712C84.801 104.464 85.333 104.34 85.978 104.34C86.6175 104.34 87.144 104.464 87.5574 104.712C87.9709 104.954 88.2768 105.299 88.4753 105.746C88.6793 106.188 88.7813 106.708 88.7813 107.307ZM84.473 107.307C84.473 107.711 84.5254 108.058 84.6301 108.35C84.7348 108.641 84.8975 108.864 85.118 109.02C85.3385 109.177 85.6224 109.255 85.9697 109.255C86.3281 109.255 86.6147 109.177 86.8297 109.02C87.0502 108.864 87.2101 108.641 87.3093 108.35C87.4141 108.058 87.4665 107.711 87.4665 107.307C87.4665 106.698 87.3507 106.221 87.1192 105.876C86.8876 105.531 86.5072 105.358 85.978 105.358C85.6252 105.358 85.3385 105.437 85.118 105.593C84.8975 105.749 84.7348 105.973 84.6301 106.264C84.5254 106.555 84.473 106.902 84.473 107.307Z" fill="black"/>
<path d="M93.957 104.429C94.7178 104.429 95.2718 104.59 95.6191 104.914C95.9719 105.232 96.1483 105.671 96.1483 106.232C96.1483 106.485 96.1098 106.727 96.0326 106.959C95.9554 107.185 95.8259 107.39 95.6439 107.573C95.4675 107.751 95.2332 107.891 94.941 107.994C94.6489 108.096 94.2878 108.147 93.8578 108.147H93.3203V110.201H92.0716V104.429H93.957ZM93.8908 105.431H93.3203V107.145H93.7337C93.9708 107.145 94.1748 107.115 94.3456 107.056C94.5165 106.997 94.6489 106.902 94.7426 106.773C94.8363 106.644 94.8831 106.477 94.8831 106.272C94.8831 105.986 94.8032 105.776 94.6433 105.641C94.4835 105.501 94.2326 105.431 93.8908 105.431Z" fill="black"/>
<path d="M103.061 104.429V105.439H100.58V110.201H99.3314V104.429H103.061Z" fill="black"/>
<path d="M109.066 110.201L108.636 108.826H106.486L106.056 110.201H104.708L106.792 104.405H108.322L110.414 110.201H109.066ZM107.909 106.458C107.881 106.366 107.845 106.25 107.801 106.11C107.757 105.97 107.713 105.827 107.669 105.682C107.625 105.536 107.589 105.41 107.561 105.302C107.534 105.41 107.495 105.544 107.446 105.706C107.401 105.862 107.357 106.013 107.313 106.159C107.275 106.299 107.244 106.399 107.222 106.458L106.801 107.8H108.339L107.909 106.458Z" fill="black"/>
<path d="M118.067 110.201H116.818V107.711H114.478V110.201H113.229V104.429H114.478V106.692H116.818V104.429H118.067V110.201Z" fill="black"/>
<path d="M123.828 110.201H121.14V109.506L121.859 109.182V105.447L121.14 105.124V104.429H123.828V105.124L123.108 105.447V109.182L123.828 109.506V110.201Z" fill="black"/>
<path d="M130.978 105.779C130.978 106.167 130.837 106.479 130.556 106.717C130.275 106.954 129.917 107.102 129.481 107.161V107.185C130.021 107.239 130.435 107.388 130.721 107.63C131.014 107.867 131.16 108.177 131.16 108.56C131.16 108.894 131.066 109.193 130.879 109.457C130.691 109.716 130.413 109.918 130.043 110.063C129.674 110.209 129.216 110.282 128.671 110.282C128.224 110.282 127.827 110.255 127.48 110.201C127.138 110.147 126.84 110.069 126.587 109.966V108.94C126.758 109.02 126.951 109.091 127.166 109.15C127.381 109.204 127.598 109.247 127.819 109.279C128.039 109.306 128.243 109.32 128.431 109.32C128.955 109.32 129.332 109.247 129.564 109.101C129.801 108.95 129.919 108.74 129.919 108.471C129.919 108.196 129.748 107.997 129.407 107.873C129.065 107.743 128.604 107.679 128.026 107.679H127.472V106.725H127.968C128.436 106.725 128.8 106.695 129.059 106.636C129.318 106.576 129.5 106.49 129.605 106.377C129.71 106.264 129.762 106.129 129.762 105.973C129.762 105.773 129.671 105.617 129.489 105.504C129.313 105.385 129.046 105.326 128.687 105.326C128.384 105.326 128.097 105.369 127.827 105.455C127.563 105.542 127.314 105.655 127.083 105.795L126.537 104.978C126.741 104.849 126.956 104.739 127.182 104.647C127.414 104.55 127.667 104.477 127.943 104.429C128.219 104.375 128.525 104.348 128.861 104.348C129.307 104.348 129.688 104.41 130.002 104.534C130.316 104.658 130.556 104.828 130.721 105.043C130.892 105.253 130.978 105.499 130.978 105.779Z" fill="black"/>
<path d="M137.944 110.201L137.514 108.826H135.364L134.934 110.201H133.586L135.67 104.405H137.2L139.292 110.201H137.944ZM136.786 106.458C136.759 106.366 136.723 106.25 136.679 106.11C136.635 105.97 136.591 105.827 136.547 105.682C136.502 105.536 136.467 105.41 136.439 105.302C136.412 105.41 136.373 105.544 136.323 105.706C136.279 105.862 136.235 106.013 136.191 106.159C136.152 106.299 136.122 106.399 136.1 106.458L135.678 107.8H137.216L136.786 106.458Z" fill="black"/>
<path d="M147.656 109.231V111.882H146.448V110.201H142.107V104.429H143.356V109.182H145.531V104.429H146.779V109.231H147.656Z" fill="black"/>
<path d="M152.843 110.201H150.155V109.506L150.875 109.182V105.447L150.155 105.124V104.429H152.843V105.124L152.123 105.447V109.182L152.843 109.506V110.201Z" fill="black"/>
<path d="M157.901 107.986L156.52 110.201H155.131L156.809 107.662C156.649 107.598 156.489 107.503 156.33 107.379C156.17 107.25 156.037 107.08 155.933 106.87C155.828 106.655 155.776 106.39 155.776 106.078C155.776 105.544 155.971 105.137 156.363 104.857C156.754 104.572 157.303 104.429 158.008 104.429H159.927V110.201H158.678V107.986H157.901ZM158.058 105.431C157.843 105.431 157.658 105.455 157.504 105.504C157.355 105.552 157.239 105.631 157.156 105.738C157.079 105.846 157.041 105.989 157.041 106.167C157.041 106.42 157.126 106.622 157.297 106.773C157.473 106.919 157.738 106.991 158.091 106.991H158.678V105.431H158.058Z" fill="black"/>
<path fill-rule="evenodd" clip-rule="evenodd" d="M63.8086 0.184859C60.8369 0.356159 58.2122 0.794645 55.66 1.54611C50.5499 3.05075 46.1556 5.67184 42.6071 9.33185C39.8413 12.1845 37.9453 15.114 36.5183 18.7402C35.0175 22.5536 34.3608 26.425 34.4578 30.8881C34.5125 33.4005 34.7527 35.458 35.2787 37.9197C37.2037 46.9288 42.3156 55.7347 49.7524 62.8528C53.8167 66.743 58.1953 69.8782 63.3317 72.576L64.3911 73.1329H67.221H70.0509L70.0148 72.9794C69.9949 72.8947 69.911 72.4252 69.8282 71.9352L69.6778 71.0446L69.0602 70.7136C61.2572 66.5313 55.8411 62.8427 53.883 60.3775C53.1168 59.4129 52.2663 57.4425 51.1115 53.9565C49.2351 48.2923 47.5239 41.1164 47.5239 38.9126C47.5239 37.8471 48.5082 32.6721 48.848 31.9515L48.9705 31.6918L49.5864 31.719C50.101 31.7417 50.2773 31.7816 50.6583 31.9612C51.4948 32.3553 51.9488 33.0031 52.4655 34.5393C52.8938 35.8131 53.0091 36.5103 53.1535 38.7024C53.193 39.3029 53.2885 40.1014 53.3655 40.4768C53.629 41.7604 54.4377 44.0578 55.2166 45.7354C55.3864 46.1009 55.5252 46.4067 55.5252 46.4148C55.5252 46.4229 55.3302 46.4497 55.0918 46.4743C54.2559 46.5605 53.5118 46.9049 53.0336 47.427C52.3206 48.2055 52.0073 49.5088 52.2682 50.6115C52.5599 51.844 53.8705 53.9746 55.124 55.2536C55.8606 56.0052 57.3178 57.3113 58.441 58.2266C58.9818 58.6674 59.8667 59.476 60.4074 60.0237C61.4977 61.128 61.7845 61.5494 62.3387 62.8618C62.5131 63.2747 62.7493 63.7774 62.8634 63.9788C63.461 65.0333 64.9056 66.6878 66.1372 67.7284C67.2172 68.6409 68.5475 69.4476 68.9727 69.4476C69.1392 69.4476 69.1609 69.4244 69.1422 69.2681C69.1242 69.118 69.0141 69.0333 68.4563 68.7392C68.0909 68.5474 67.4966 68.1748 67.1358 67.912C66.2879 67.2947 64.5749 65.581 63.9156 64.6904C63.4305 64.0353 63.2468 63.6972 62.4866 62.0619C62.317 61.6971 62.0486 61.2057 61.8902 60.97C61.4842 60.3658 60.2575 59.121 59.2251 58.2655C55.2248 54.9502 53.6297 52.9464 53.0015 50.4476C52.7543 49.4647 52.9297 48.7736 53.5922 48.1204C54.2972 47.4252 55.1188 47.1977 55.9758 47.4604C56.8336 47.7233 57.6047 48.274 59.4242 49.923C60.8108 51.1797 61.3365 51.5937 62.2044 52.1116C62.54 52.3119 63.547 52.9428 64.442 53.5137L66.0694 54.5515L66.8831 54.5935C69.6483 54.7364 72.3451 55.7568 74.3081 57.4029C75.03 58.0082 76.2982 59.3431 76.8295 60.057C77.4032 60.8276 77.974 61.9353 78.2047 62.7253C78.7747 64.6777 78.8153 64.7667 79.5214 65.6123C79.7503 65.8865 80.0106 66.255 80.0998 66.4313C80.1891 66.6076 80.3386 66.8868 80.4322 67.0518L80.6024 67.3517L80.821 66.9153C81.1296 66.2988 81.4419 65.8221 81.8689 65.3154C82.362 64.7304 82.5204 64.395 82.8485 63.241C83.2075 61.9782 83.4378 61.4321 83.9446 60.6414C84.5761 59.6562 85.2606 58.8676 86.4797 57.7206C88.5569 55.7662 91.4301 54.6188 94.5881 54.4823L95.1698 54.4572L96.8257 53.4004C97.7365 52.8192 98.7564 52.1791 99.092 51.9779C99.864 51.515 100.562 50.9686 101.635 49.9877C103.485 48.2956 104.334 47.6694 105.145 47.3978C105.712 47.2079 106.409 47.2345 106.876 47.4638C107.324 47.6839 107.874 48.2081 108.113 48.6433C108.296 48.9748 108.313 49.063 108.308 49.6219C108.303 50.1208 108.262 50.3559 108.087 50.8741C107.347 53.0767 105.817 54.9844 102.729 57.5562C99.9459 59.8745 99.3128 60.6112 98.5195 62.4542C97.8759 63.9497 97.1943 64.9187 95.8076 66.3097C94.7837 67.3368 93.7293 68.148 92.7783 68.6402C92.1987 68.9405 92.0754 69.0313 92.0747 69.1596C92.0729 69.5036 92.4903 69.4019 93.4429 68.8259C95.199 67.7643 97.2031 65.7752 98.2681 64.0368C98.434 63.7659 98.7321 63.1603 98.9304 62.6912C99.5969 61.1146 100.437 60.0934 102.411 58.4582C104.341 56.8598 106.002 55.3294 106.702 54.5039C107.631 53.4096 108.589 51.7706 108.898 50.7479C109.38 49.1575 108.735 47.3968 107.428 46.7348C107.055 46.5458 106.396 46.3801 106.016 46.3801C105.844 46.3801 105.703 46.3686 105.703 46.3546C105.703 46.3405 105.843 46.0261 106.014 45.656C106.46 44.6887 107.139 42.9353 107.453 41.9389C107.835 40.732 107.992 39.8942 108.075 38.6341C108.218 36.4631 108.349 35.6639 108.767 34.4407C109.289 32.9121 109.707 32.2913 110.471 31.913C110.887 31.7069 111.474 31.5717 111.955 31.571C112.138 31.5707 112.234 31.612 112.313 31.7241C112.56 32.0773 112.863 33.3968 113.403 36.4843C113.699 38.1765 113.717 38.3478 113.684 39.146C113.526 42.9002 110.098 55.1487 108.106 59.0741C107.4 60.4664 106.304 61.5991 103.906 63.417C101.418 65.3034 97.1989 67.9078 92.713 70.3266L91.5552 70.9504L91.4015 71.854C91.317 72.3508 91.2315 72.8422 91.2116 72.9452L91.1754 73.1329H92.6456H94.1157L95.164 72.6552C107.044 67.2407 117.152 57.4166 122.358 46.2242C124.372 41.894 125.568 37.7374 126.123 33.1398C126.33 31.4256 126.35 27.4053 126.159 25.804C125.344 18.9549 122.765 13.4449 118.253 8.90886C115.479 6.12056 112.224 3.9701 108.545 2.49461C97.3738 -1.9845 83.3032 -0.0641736 70.6126 7.6714C58.5576 15.0195 47.2772 28.7275 41.5545 42.9825C41.2424 43.7601 40.9783 44.3875 40.9678 44.3769C40.9431 44.3521 41.9072 41.4591 42.3616 40.194C43.6294 36.6645 46.5523 30.6165 48.97 26.5203C52.7666 20.0878 57.1227 14.766 61.8653 10.7663C64.5977 8.46177 68.0092 6.1594 71.6809 4.14181C73.0182 3.40693 76.609 1.61019 76.7403 1.61019C76.7825 1.61019 76.817 1.56836 76.817 1.51724C76.817 1.46019 76.6794 1.39508 76.461 1.34867C76.2652 1.30704 75.6778 1.18215 75.1557 1.07118C71.5927 0.313709 67.3385 -0.0185846 63.8086 0.184859ZM63.391 30.6139C65.315 31.037 67.6903 32.3347 70.173 34.3193C73.0649 36.6307 74.9286 39.419 75.3346 42.0412C75.3758 42.3069 75.3948 42.8927 75.3769 43.3432C75.35 44.0222 75.3087 44.2688 75.135 44.7864C74.2641 47.3828 71.7963 48.8256 68.7848 48.4993C65.6426 48.1588 62.279 46.2342 58.9479 42.871C57.2894 41.1967 56.5038 40.0453 55.9895 38.5354C55.778 37.9143 55.7673 37.8349 55.765 36.8597C55.7629 35.9749 55.784 35.7665 55.9207 35.3242C56.2576 34.2336 57.0508 32.9735 57.9429 32.1118C59.4809 30.6265 61.2438 30.1418 63.391 30.6139ZM89.6667 31.8758C93.0662 32.2383 95.0353 32.7358 97.9461 33.9679C99.5968 34.6667 100.751 35.4427 101.94 36.6537C103.076 37.81 103.828 39.0169 104.157 40.2075C104.28 40.6551 104.306 40.9345 104.309 41.8076C104.313 42.73 104.293 42.9299 104.156 43.369C103.586 45.1944 101.992 47.4963 100.351 48.8644C98.901 50.0727 97.2217 50.8359 95.8023 50.9318C95.2276 50.9706 94.2383 50.8842 93.4652 50.7277L93.0595 50.6456L92.8033 50.1732C92.4375 49.4988 92.0874 49.0668 91.259 48.268C89.9657 47.0206 88.0657 45.6641 86.5417 44.9001C85.6778 44.467 85.1574 44.3521 85.1574 44.5945C85.1574 44.7422 85.3367 44.8787 85.5304 44.8787C85.7459 44.8787 86.6902 45.3687 87.4275 45.8632C89.3266 47.1369 91.5731 49.2254 92.1078 50.2142C92.2077 50.3988 92.2739 50.5901 92.2551 50.6394C92.2325 50.6987 91.9609 50.7572 91.4524 50.8125C89.6102 51.0126 87.6307 51.4283 86.8695 51.7749C86.3633 52.0054 85.4812 52.576 84.9242 53.0333C84.5763 53.3189 84.48 53.3641 84.2186 53.3641C83.9853 53.3641 83.8871 53.3284 83.7907 53.2087C83.6021 52.9743 83.6344 52.8688 84.0047 52.5096C84.1912 52.3287 84.3437 52.1654 84.3437 52.1468C84.3437 52.1282 84.2898 52.1129 84.2239 52.1129C84.0748 52.1129 83.6824 52.3744 83.1775 52.8104C82.7007 53.222 82.4615 53.2744 81.9902 53.0704C81.6178 52.9091 81.2513 52.5761 81.3212 52.4624C81.3452 52.4233 81.8053 52.052 82.3437 51.6373C83.3358 50.8729 83.538 50.6604 83.4026 50.5241C83.3012 50.4221 83.0468 50.55 82.6181 50.9186C82.0634 51.3955 80.5855 52.3614 80.1722 52.517C79.4674 52.7824 78.673 52.6517 78.5462 52.2495C78.3968 51.7756 80.0572 50.288 81.6824 49.4398C82.046 49.2501 82.3677 49.0802 82.3976 49.0622C82.5017 48.9995 82.2912 48.837 82.1056 48.837C81.8613 48.837 80.9876 49.2807 80.3322 49.7376C80.0465 49.9367 79.4719 50.4056 79.0551 50.7797C78.1796 51.5655 78.0598 51.657 77.9755 51.6046C77.8601 51.5328 77.8264 51.0489 77.8969 50.4711C78.0305 49.3741 78.8448 48.0786 79.8345 47.3886C80.0956 47.2065 80.8667 46.7806 81.5483 46.442C82.2298 46.1035 82.7696 45.7975 82.7479 45.7621C82.5918 45.5078 80.797 46.1799 79.7356 46.8902C79.1886 47.2561 78.3701 48.1118 78.0474 48.6549C77.5452 49.5003 77.4649 49.8185 77.2975 51.6254C77.2614 52.0142 77.2225 52.3412 77.2109 52.3523C77.1873 52.3749 74.0141 51.9526 73.4013 51.8453C73.0899 51.7908 72.8458 51.6732 72.2825 51.3068C71.8862 51.0489 71.3941 50.743 71.1889 50.6267C70.8038 50.4086 70.5109 50.1696 70.5109 50.0734C70.5109 49.9466 70.7862 49.7956 71.3924 49.5897C73.8068 48.7699 75.5248 47.0577 76.1534 44.8446C76.2867 44.3752 76.3081 44.1454 76.3055 43.2067C76.303 42.2892 76.2777 42.022 76.1473 41.5346C75.8465 40.411 75.4157 39.4238 74.7359 38.2999C74.5339 37.9659 74.3521 37.6096 74.3319 37.5081C74.2508 37.0998 74.7881 36.4161 76.0372 35.338C77.447 34.1213 78.9767 33.2402 80.716 32.6428C82.0358 32.1896 83.0719 31.9638 84.8184 31.7489C85.335 31.6854 88.7084 31.7736 89.6667 31.8758ZM79.2878 41.2547C79.3085 41.2885 79.6078 41.4541 79.953 41.6227C81.4344 42.3466 82.4832 42.5671 83.7871 42.4289C84.1865 42.3865 84.6028 42.3276 84.7121 42.2979C84.9011 42.2465 85.2198 41.9158 85.1489 41.8445C85.1305 41.826 84.7664 41.8583 84.3397 41.9162C82.6809 42.1414 81.8322 42.0502 80.0819 41.4583C79.2088 41.1631 79.2357 41.17 79.2878 41.2547Z" fill="#E73131"/>
<path d="M11.9951 94.5053C10.834 95.5241 9.12651 96.0335 6.87263 96.0335C4.62444 96.0335 2.91696 95.5241 1.75017 94.5053C0.583391 93.4808 0 91.8615 0 89.6475C0 87.4334 0.583391 85.817 1.75017 84.7982C2.91696 83.7794 4.62444 83.27 6.87263 83.27C9.12651 83.27 10.834 83.7794 11.9951 84.7982C13.1619 85.817 13.7453 87.4334 13.7453 89.6475C13.7453 91.8615 13.1619 93.4808 11.9951 94.5053ZM9.66437 86.5996C9.08952 85.9166 8.15894 85.5751 6.87263 85.5751C5.59202 85.5751 4.66144 85.9166 4.08089 86.5996C3.50604 87.2826 3.21861 88.3014 3.21861 89.656C3.21861 91.0049 3.50604 92.0209 4.08089 92.7039C4.66144 93.3812 5.59202 93.7198 6.87263 93.7198C8.15894 93.7198 9.08952 93.3812 9.66437 92.7039C10.2392 92.0209 10.5267 91.0049 10.5267 89.656C10.5267 88.3014 10.2392 87.2826 9.66437 86.5996Z" fill="black"/>
<path d="M16.3833 94.326C15.3304 93.3186 14.8039 91.7619 14.8039 89.656C14.8039 87.5444 15.3304 85.9849 16.3833 84.9775C17.442 83.9644 19.0271 83.4578 21.1387 83.4578H23.0425C24.3345 83.4578 25.4757 83.7936 26.466 84.4653C27.4621 85.1369 27.9601 86.0561 27.9601 87.2229C27.9601 87.5587 27.8605 87.8006 27.6613 87.9485C27.4621 88.0908 27.2686 88.162 27.0807 88.162H26.0648C25.5411 88.162 25.1342 87.8489 24.8439 87.2229C24.4227 86.3236 23.7227 85.8739 22.7437 85.8739H21.2241C19.9776 85.8739 19.1324 86.1414 18.6884 86.6765C18.2445 87.2115 18.0225 88.2018 18.0225 89.6475C18.0225 91.0932 18.2445 92.0863 18.6884 92.627C19.1324 93.1621 19.9776 93.4296 21.2241 93.4296H22.923C23.902 93.4296 24.5992 92.9799 25.0147 92.0806C25.3049 91.4489 25.7147 91.133 26.2441 91.133H27.26C27.5275 91.133 27.7381 91.2326 27.8918 91.4318C28.0512 91.631 28.1308 91.8473 28.1308 92.0806C28.1308 93.2474 27.6357 94.1666 26.6453 94.8382C25.655 95.5042 24.5138 95.8371 23.2218 95.8371H21.1387C19.0271 95.8371 17.442 95.3334 16.3833 94.326Z" fill="black"/>
<path d="M41.0907 94.5053C39.9296 95.5241 38.2221 96.0335 35.9682 96.0335C33.72 96.0335 32.0125 95.5241 30.8457 94.5053C29.679 93.4808 29.0956 91.8615 29.0956 89.6475C29.0956 87.4334 29.679 85.817 30.8457 84.7982C32.0125 83.7794 33.72 83.27 35.9682 83.27C38.2221 83.27 39.9296 83.7794 41.0907 84.7982C42.2574 85.817 42.8408 87.4334 42.8408 89.6475C42.8408 91.8615 42.2574 93.4808 41.0907 94.5053ZM38.7599 86.5996C38.1851 85.9166 37.2545 85.5751 35.9682 85.5751C34.6876 85.5751 33.757 85.9166 33.1765 86.5996C32.6016 87.2826 32.3142 88.3014 32.3142 89.656C32.3142 91.0049 32.6016 92.0209 33.1765 92.7039C33.757 93.3812 34.6876 93.7198 35.9682 93.7198C37.2545 93.7198 38.1851 93.3812 38.7599 92.7039C39.3348 92.0209 39.6222 91.0049 39.6222 89.656C39.6222 88.3014 39.3348 87.2826 38.7599 86.5996Z" fill="black"/>
<path d="M44.5995 94.9834V84.3372C44.5995 84.1038 44.6764 83.9103 44.8301 83.7567C44.9837 83.603 45.1772 83.5261 45.4106 83.5261H55.0237C55.2457 83.5261 55.4335 83.6058 55.5872 83.7652C55.7466 83.9246 55.8263 84.1152 55.8263 84.3372V85.1397C55.8263 85.3617 55.7494 85.5524 55.5958 85.7117C55.4478 85.8654 55.2628 85.9422 55.0408 85.9422H47.8182V88.0083H52.0356C53.4187 88.0083 54.54 88.3356 55.3994 88.9901C56.2588 89.6389 56.6885 90.6065 56.6885 91.8928C56.6885 93.1734 56.2588 94.141 55.3994 94.7956C54.54 95.4444 53.4187 95.7688 52.0356 95.7688H45.3679C45.1516 95.7688 44.9695 95.6948 44.8215 95.5468C44.6735 95.3932 44.5995 95.2053 44.5995 94.9834ZM47.8182 93.3527H52.0356C52.9918 93.3527 53.4699 92.8632 53.4699 91.8843C53.4699 90.9053 52.9918 90.4159 52.0356 90.4159H47.8182V93.3527Z" fill="black"/>
<path d="M57.4228 95.0517L59.5913 86.8557C60.1718 84.6417 62.0586 83.5318 65.2516 83.5261H69.5203C69.7195 83.5261 69.8874 83.6087 70.024 83.7737C70.1663 83.9388 70.2374 84.1266 70.2374 84.3372V94.9663C70.2374 95.1883 70.1606 95.3789 70.0069 95.5383C69.859 95.692 69.674 95.7688 69.452 95.7688H67.8214C67.5994 95.7688 67.4087 95.692 67.2494 95.5383C67.0957 95.3789 67.0188 95.1883 67.0188 94.9663V85.9422H64.9357C64.3893 85.9422 63.9112 86.0988 63.5014 86.4118C63.0973 86.7191 62.8241 87.1346 62.6818 87.6583L60.7267 94.9663C60.6698 95.1997 60.5418 95.3932 60.3426 95.5468C60.1434 95.6948 59.9328 95.7688 59.7108 95.7688H57.9777C57.7785 95.7688 57.6305 95.7062 57.5338 95.581C57.4427 95.4558 57.3972 95.3505 57.3972 95.2651C57.4028 95.1797 57.4114 95.1086 57.4228 95.0517Z" fill="black"/>
<path d="M72.6877 94.9663V84.3372C72.6877 84.1038 72.7645 83.9103 72.9182 83.7567C73.0719 83.603 73.2654 83.5261 73.4987 83.5261H75.0013C75.2233 83.5261 75.4111 83.603 75.5648 83.7567C75.7242 83.9103 75.8039 84.0982 75.8039 84.3201V92.8661L80.6617 84.3372C80.7926 84.1152 80.9718 83.9246 81.1995 83.7652C81.4272 83.6058 81.6378 83.5261 81.8313 83.5261H84.3498C84.5718 83.5261 84.7596 83.6058 84.9133 83.7652C85.067 83.9246 85.1438 84.1152 85.1438 84.3372V94.9663C85.1438 95.1883 85.0641 95.3789 84.9048 95.5383C84.7454 95.692 84.5547 95.7688 84.3327 95.7688H82.8302C82.6082 95.7688 82.4175 95.692 82.2582 95.5383C82.1045 95.3789 82.0276 95.1883 82.0276 94.9663V87.0436L77.5711 94.9663C77.4402 95.1883 77.2552 95.3789 77.0162 95.5383C76.7771 95.692 76.5466 95.7688 76.3246 95.7688H73.4987C73.2768 95.7688 73.0861 95.692 72.9267 95.5383C72.7674 95.3789 72.6877 95.1883 72.6877 94.9663Z" fill="black"/>
<path d="M87.594 84.3372C87.594 84.1152 87.6737 83.9246 87.8331 83.7652C87.9925 83.6058 88.1831 83.5261 88.4051 83.5261H95.346C97.0478 83.5261 98.3028 84.0156 99.111 84.9946C99.5607 85.5353 99.7855 86.2268 99.7855 87.0692C99.7855 87.9058 99.4013 88.6372 98.6329 89.2633C99.7257 89.8495 100.272 90.7602 100.272 91.9953C100.272 93.2304 99.8339 94.1695 98.9574 94.8126C98.0866 95.4501 97.0165 95.7688 95.7473 95.7688H88.4051C88.1831 95.7688 87.9925 95.692 87.8331 95.5383C87.6737 95.3789 87.594 95.1883 87.594 94.9663V84.3372ZM90.8127 93.4637H95.6961C96.1343 93.4637 96.4701 93.3328 96.7035 93.071C96.9368 92.8092 97.0535 92.4506 97.0535 91.9953C97.0535 91.5399 96.9368 91.1814 96.7035 90.9196C96.4701 90.6577 96.1343 90.5268 95.6961 90.5268H90.8127V93.4637ZM90.8127 88.2815H95.3802C95.7388 88.2815 96.0262 88.1762 96.2425 87.9656C96.4587 87.7493 96.5669 87.4505 96.5669 87.0692C96.5669 86.6821 96.4587 86.3805 96.2425 86.1642C96.0262 85.9479 95.7388 85.8398 95.3802 85.8398H90.8127V88.2815Z" fill="black"/>
<path d="M102.022 94.9834V84.3372C102.022 84.1152 102.102 83.9246 102.261 83.7652C102.421 83.6058 102.611 83.5261 102.833 83.5261H104.421C104.655 83.5261 104.848 83.6058 105.002 83.7652C105.161 83.9246 105.241 84.1152 105.241 84.3372V94.9663C105.241 95.1883 105.158 95.3789 104.993 95.5383C104.834 95.692 104.643 95.7688 104.421 95.7688H102.833C102.611 95.7688 102.421 95.6948 102.261 95.5468C102.102 95.3932 102.022 95.2053 102.022 94.9834Z" fill="black"/>
<path d="M112.6 94.9663V94.1467C112.6 93.9247 112.677 93.7369 112.831 93.5832C112.99 93.4296 113.181 93.3527 113.403 93.3527H114.069L115.657 86.8899C116.209 84.6474 118.058 83.5261 121.206 83.5261H125.816C126.038 83.5261 126.226 83.603 126.38 83.7567C126.539 83.9103 126.619 84.0982 126.619 84.3201V94.9834C126.619 95.2053 126.539 95.3932 126.38 95.5468C126.226 95.6948 126.038 95.7688 125.816 95.7688H113.403C113.181 95.7688 112.99 95.692 112.831 95.5383C112.677 95.3789 112.6 95.1883 112.6 94.9663ZM117.356 93.3527H123.409V85.9422H120.856C120.315 85.9422 119.868 86.0902 119.516 86.3862C119.163 86.6821 118.921 87.0948 118.79 87.6241L117.356 93.3527Z" fill="black"/>
<path d="M129.069 94.9834V84.3372C129.069 84.1152 129.149 83.9246 129.308 83.7652C129.467 83.6058 129.658 83.5261 129.88 83.5261H131.468C131.701 83.5261 131.895 83.6058 132.048 83.7652C132.208 83.9246 132.288 84.1152 132.288 84.3372V94.9663C132.288 95.1883 132.205 95.3789 132.04 95.5383C131.881 95.692 131.69 95.7688 131.468 95.7688H129.88C129.658 95.7688 129.467 95.6948 129.308 95.5468C129.149 95.3932 129.069 95.2053 129.069 94.9834Z" fill="black"/>
<path d="M133.688 85.1397V84.3372C133.688 84.1038 133.764 83.9103 133.918 83.7567C134.072 83.603 134.265 83.5261 134.499 83.5261H145.333C145.566 83.5261 145.76 83.603 145.913 83.7567C146.067 83.9103 146.144 84.1038 146.144 84.3372V85.1397C146.144 85.3731 146.067 85.5666 145.913 85.7203C145.76 85.8682 145.566 85.9422 145.333 85.9422H141.525V94.9834C141.525 95.2053 141.445 95.3932 141.286 95.5468C141.132 95.6948 140.944 95.7688 140.722 95.7688H139.109C138.887 95.7688 138.696 95.6948 138.537 95.5468C138.383 95.3932 138.306 95.2053 138.306 94.9834V85.9422H134.499C134.265 85.9422 134.072 85.8682 133.918 85.7203C133.764 85.5666 133.688 85.3731 133.688 85.1397Z" fill="black"/>
<path d="M147.544 94.9663V84.3372C147.544 84.1038 147.621 83.9103 147.774 83.7567C147.928 83.603 148.122 83.5261 148.355 83.5261H149.858C150.08 83.5261 150.267 83.603 150.421 83.7567C150.58 83.9103 150.66 84.0982 150.66 84.3201V92.8661L155.518 84.3372C155.649 84.1152 155.828 83.9246 156.056 83.7652C156.283 83.6058 156.494 83.5261 156.687 83.5261H159.206C159.428 83.5261 159.616 83.6058 159.77 83.7652C159.923 83.9246 160 84.1152 160 84.3372V94.9663C160 95.1883 159.92 95.3789 159.761 95.5383C159.602 95.692 159.411 95.7688 159.189 95.7688H157.686C157.464 95.7688 157.274 95.692 157.114 95.5383C156.961 95.3789 156.884 95.1883 156.884 94.9663V87.0436L152.427 94.9663C152.296 95.1883 152.111 95.3789 151.872 95.5383C151.633 95.692 151.403 95.7688 151.181 95.7688H148.355C148.133 95.7688 147.942 95.692 147.783 95.5383C147.624 95.3789 147.544 95.1883 147.544 94.9663Z" fill="black"/>
</svg>
